<svg xmlns="http://www.w3.org/2000/svg" viewBox="0 0 400 300" preserveAspectRatio="xMidYMid meet">
  <!-- Background -->
  <rect x="0" y="0" width="400" height="300" fill="#f8f8f8" fill-opacity="0.1" />
  
  <!-- Grid lines -->
  <g stroke="#EF400A" stroke-opacity="0.1" stroke-width="0.5">
    <line x1="0" y1="250" x2="400" y2="250" />
    <line x1="0" y1="200" x2="400" y2="200" />
    <line x1="0" y1="150" x2="400" y2="150" />
    <line x1="0" y1="100" x2="400" y2="100" />
    <line x1="0" y1="50" x2="400" y2="50" />
  </g>
  
  <!-- X-axis -->
  <line x1="0" y1="250" x2="400" y2="250" stroke="#555" stroke-width="1" />
  
  <!-- Candle 1 -->
  <g class="candle">
    <line x1="50" y1="220" x2="50" y2="180" stroke="#EF400A" stroke-width="1" />
    <rect x="40" y="200" width="20" height="40" fill="#EF400A" fill-opacity="0.3" stroke="#EF400A" stroke-width="1" />
    <animate attributeName="transform" values="translate(0,0); translate(0,-5); translate(0,0)" dur="3s" repeatCount="indefinite" />
  </g>
  
  <!-- Candle 2 -->
  <g class="candle">
    <line x1="100" y1="210" x2="100" y2="160" stroke="#EF400A" stroke-width="1" />
    <rect x="90" y="180" width="20" height="50" fill="#EF400A" fill-opacity="0.4" stroke="#EF400A" stroke-width="1" />
    <animate attributeName="transform" values="translate(0,0); translate(0,-5); translate(0,0)" dur="3.5s" repeatCount="indefinite" />
  </g>
  
  <!-- Candle 3 -->
  <g class="candle">
    <line x1="150" y1="190" x2="150" y2="140" stroke="#EF400A" stroke-width="1" />
    <rect x="140" y="160" width="20" height="50" fill="#EF400A" fill-opacity="0.5" stroke="#EF400A" stroke-width="1" />
    <animate attributeName="transform" values="translate(0,0); translate(0,-5); translate(0,0)" dur="4s" repeatCount="indefinite" />
  </g>
  
  <!-- Candle 4 -->
  <g class="candle">
    <line x1="200" y1="170" x2="200" y2="120" stroke="#EF400A" stroke-width="1" />
    <rect x="190" y="140" width="20" height="50" fill="#EF400A" fill-opacity="0.6" stroke="#EF400A" stroke-width="1" />
    <animate attributeName="transform" values="translate(0,0); translate(0,-5); translate(0,0)" dur="4.5s" repeatCount="indefinite" />
  </g>
  
  <!-- Candle 5 -->
  <g class="candle">
    <line x1="250" y1="150" x2="250" y2="90" stroke="#EF400A" stroke-width="1" />
    <rect x="240" y="110" width="20" height="60" fill="#EF400A" fill-opacity="0.7" stroke="#EF400A" stroke-width="1" />
    <animate attributeName="transform" values="translate(0,0); translate(0,-5); translate(0,0)" dur="5s" repeatCount="indefinite" />
  </g>
  
  <!-- Candle 6 -->
  <g class="candle">
    <line x1="300" y1="130" x2="300" y2="60" stroke="#EF400A" stroke-width="1" />
    <rect x="290" y="80" width="20" height="70" fill="#EF400A" fill-opacity="0.8" stroke="#EF400A" stroke-width="1" />
    <animate attributeName="transform" values="translate(0,0); translate(0,-5); translate(0,0)" dur="5.5s" repeatCount="indefinite" />
  </g>
  
  <!-- Candle 7 -->
  <g class="candle">
    <line x1="350" y1="110" x2="350" y2="40" stroke="#EF400A" stroke-width="1" />
    <rect x="340" y="60" width="20" height="70" fill="#EF400A" fill-opacity="0.9" stroke="#EF400A" stroke-width="1" />
    <animate attributeName="transform" values="translate(0,0); translate(0,-5); translate(0,0)" dur="6s" repeatCount="indefinite" />
  </g>
  
  <!-- Trend line -->
  <path d="M50,190 L100,170 L150,150 L200,130 L250,100 L300,70 L350,50" 
        fill="none" 
        stroke="#EF400A" 
        stroke-width="2" 
        stroke-opacity="0.5"
        stroke-dasharray="5,3" />
  
  <!-- Subtle wave animation at bottom -->
  <path d="M0,250 C50,255 100,245 150,250 S200,255 250,250 S300,245 350,250 S400,255 400,250" 
    fill="none" 
    stroke="#EF400A" 
    stroke-width="1" 
    stroke-opacity="0.3">
    <animate attributeName="d" 
      values="M0,250 C50,255 100,245 150,250 S200,255 250,250 S300,245 350,250 S400,255 400,250;
              M0,250 C50,245 100,255 150,245 S200,245 250,255 S300,255 350,245 S400,245 400,250;
              M0,250 C50,255 100,245 150,250 S200,255 250,250 S300,245 350,250 S400,255 400,250"
      dur="10s"
      repeatCount="indefinite"/>
  </path>
  
  <!-- Style for mobile optimization -->
  <style>
    @media (max-width: 400px) {
      .candle rect {
        width: 15px;
        x: 42.5px;
      }
      .candle:nth-child(2) rect { x: 92.5px; }
      .candle:nth-child(3) rect { x: 142.5px; }
      .candle:nth-child(4) rect { x: 192.5px; }
      .candle:nth-child(5) rect { x: 242.5px; }
      .candle:nth-child(6) rect { x: 292.5px; }
      .candle:nth-child(7) rect { x: 342.5px; }
    }
  </style>
</svg>
