<svg xmlns="http://www.w3.org/2000/svg" viewBox="0 0 390 150" preserveAspectRatio="xMidYMid meet">
  <!-- Gradient definitions -->
  <defs>
    <linearGradient id="orangeSeaGradient" x1="0%" y1="0%" x2="0%" y2="100%">
      <stop offset="0%" stop-color="#FF9800" stop-opacity="0.8" />
      <stop offset="100%" stop-color="#E65100" stop-opacity="0.9" />
    </linearGradient>
  </defs>

  <!-- Background sea -->
  <rect x="0" y="0" width="390" height="150" fill="#E65100" />
  
  <!-- Deep sea waves (background) -->
  <path d="M0,100 C50,85 100,115 150,100 S250,85 300,100 S350,115 390,100 L390,150 L0,150 Z" 
        fill="#E65100" />
        
  <!-- Middle sea waves -->
  <path d="M0,90 C65,110 130,70 195,90 S325,110 390,90 L390,150 L0,150 Z" 
        fill="url(#orangeSeaGradient)">
    <animate attributeName="d" 
      values="M0,90 C65,110 130,70 195,90 S325,110 390,90 L390,150 L0,150 Z;
              M0,100 C65,80 130,120 195,100 S325,80 390,100 L390,150 L0,150 Z;
              M0,90 C65,110 130,70 195,90 S325,110 390,90 L390,150 L0,150 Z"
      dur="8s"
      repeatCount="indefinite" />
  </path>

  <!-- Surface sea waves -->
  <path d="M0,80 C32.5,95 65,65 97.5,80 S162.5,95 195,80 S260,65 292.5,80 S357.5,95 390,80 L390,150 L0,150 Z" 
        fill="#FF9800" 
        fill-opacity="0.6">
    <animate attributeName="d" 
      values="M0,80 C32.5,95 65,65 97.5,80 S162.5,95 195,80 S260,65 292.5,80 S357.5,95 390,80 L390,150 L0,150 Z;
              M0,70 C32.5,85 65,55 97.5,70 S162.5,85 195,70 S260,55 292.5,70 S357.5,85 390,70 L390,150 L0,150 Z;
              M0,80 C32.5,95 65,65 97.5,80 S162.5,95 195,80 S260,65 292.5,80 S357.5,95 390,80 L390,150 L0,150 Z"
      dur="5s"
      repeatCount="indefinite" />
  </path>
  
  <!-- Top sea waves -->
  <path d="M0,65 C48.75,75 97.5,55 146.25,65 S243.75,75 292.5,65 S341.25,55 390,65 L390,85 L0,85 Z" 
        fill="#FFAB40" 
        fill-opacity="0.4">
    <animate attributeName="d" 
      values="M0,65 C48.75,75 97.5,55 146.25,65 S243.75,75 292.5,65 S341.25,55 390,65 L390,85 L0,85 Z;
              M0,60 C48.75,70 97.5,50 146.25,60 S243.75,70 292.5,60 S341.25,50 390,60 L390,85 L0,85 Z;
              M0,65 C48.75,75 97.5,55 146.25,65 S243.75,75 292.5,65 S341.25,55 390,65 L390,85 L0,85 Z"
      dur="4s"
      repeatCount="indefinite" />
  </path>
  
  <!-- Surface reflections -->
  <path d="M30,85 L40,85" stroke="#FFD180" stroke-width="1" stroke-opacity="0.5" />
  <path d="M160,80 L175,80" stroke="#FFD180" stroke-width="1" stroke-opacity="0.5" />
  <path d="M230,78 L245,78" stroke="#FFD180" stroke-width="1" stroke-opacity="0.5" />
  <path d="M320,82 L335,82" stroke="#FFD180" stroke-width="1" stroke-opacity="0.5" />
</svg>